# xmcd
#
# Track frame offsets:
#	150
#	14031
#	34301
#	44960
#	62766
#	77490
#	98397
#	111926
#	121484
#	139749
#
# Disc length: 2080 seconds
#
# Revision: 1
# Processed by: cddbd v1.5.2PL0 Copyright (c) Steve Scherf et al.
# Submitted via: audiograbber 1.83.01
#
DISCID=8a081e0a
DTITLE=Norm Post - Finally Got Around to Me
DYEAR=1990
DGENRE=Country
TTITLE0=Early Morning Thinking
TTITLE1=Don't Keep Me Dreaming
TTITLE2=Plant the Seeds
TTITLE3=That Doesn't Mean I Don't Love My God
TTITLE4=I'm so Glad You Finally Got Around to Me
TTITLE5=Lord, You Gave Me a Mountain
TTITLE6=Rose on the Blue Side of Heaven
TTITLE7=I Wonder Where You Are Tonight
TTITLE8=Drink Till You Drown
TTITLE9=Gospel Medley
EXTD=
EXTT0=
EXTT1=
EXTT2=
EXTT3=
EXTT4=
EXTT5=
EXTT6=
EXTT7=
EXTT8=
EXTT9=
PLAYORDER=
